<svg width="102" height="25" viewBox="0 0 102 25" fill="none" xmlns="http://www.w3.org/2000/svg">
<path id="Vector" d="M7.13297 24.9665V7.54266H0V2.96437H19.4747V7.54266H12.3417V24.9665H7.13297ZM20.9738 24.9665V2.96437H26.0166V10.8035C26.3926 10.1886 27.0119 9.59576 27.8745 9.02485C28.7592 8.45393 29.8319 8.16847 31.0927 8.16847C33.216 8.16847 34.6647 8.76135 35.4388 9.94709C36.235 11.1109 36.6331 12.8017 36.6331 15.0195V24.9665H31.5903V16.2711C31.5903 15.5025 31.5461 14.7999 31.4576 14.1631C31.3691 13.5263 31.1479 13.0212 30.7941 12.648C30.4623 12.2527 29.8872 12.0551 29.0689 12.0551C28.0072 12.0551 27.2331 12.4394 26.7465 13.2079C26.2599 13.9545 26.0166 15.0743 26.0166 16.5675V24.9665H20.9738ZM43.6207 5.92873C42.8024 5.92873 42.0946 5.64327 41.4974 5.07236C40.9224 4.47949 40.6348 3.77682 40.6348 2.96437C40.6348 2.12995 40.9224 1.42729 41.4974 0.856372C42.0946 0.285457 42.8024 0 43.6207 0C44.4612 0 45.169 0.285457 45.744 0.856372C46.3191 1.42729 46.6066 2.12995 46.6066 2.96437C46.6066 3.77682 46.3191 4.47949 45.744 5.07236C45.169 5.64327 44.4612 5.92873 43.6207 5.92873ZM41.0661 24.9665V12.4503H37.9475V8.6296H46.1421V24.9665H41.0661ZM48.6115 24.9665V8.6296H53.024L53.6544 10.8035C54.0304 10.1886 54.6497 9.59576 55.5123 9.02485C56.397 8.45393 57.4697 8.16847 58.7304 8.16847C60.8537 8.16847 62.3024 8.76135 63.0765 9.94709C63.8728 11.1109 64.2709 12.8017 64.2709 15.0195V24.9665H59.2281V16.2711C59.2281 15.5025 59.1838 14.7999 59.0953 14.1631C59.0069 13.5263 58.7857 13.0212 58.4318 12.648C58.1 12.2527 57.525 12.0551 56.7066 12.0551C55.645 12.0551 54.8708 12.4394 54.3843 13.2079C53.8977 13.9545 53.6544 15.0743 53.6544 16.5675V24.9665H48.6115ZM66.9339 24.9665V2.96437H71.9767V14.8218L77.484 8.6296H83.4558L77.0196 15.4476L83.9535 24.9665H77.9817L73.7019 19.0378L71.9767 20.8494V24.9665H66.9339ZM84.5633 24.9665V20.8494C87.4829 18.8073 89.8052 17.0835 91.5304 15.6782C93.2556 14.2509 94.4942 12.9993 95.2462 11.9233C96.0203 10.8474 96.4074 9.8373 96.4074 8.8931C96.4074 8.03672 96.0977 7.38896 95.4784 6.94979C94.8813 6.51063 94.1735 6.29104 93.3551 6.29104C92.6695 6.29104 91.9949 6.48867 91.3314 6.88392C90.6678 7.25721 90.2144 7.95987 89.9711 8.99191L85.3928 7.34504C85.9899 5.80796 87.0184 4.63319 88.4782 3.82074C89.938 2.98632 91.641 2.56912 93.5874 2.56912C95.0914 2.56912 96.4406 2.82164 97.6349 3.32668C98.8293 3.80976 99.7693 4.53438 100.455 5.50055C101.141 6.44475 101.483 7.60854 101.483 8.99191C101.483 11.2097 100.543 13.2738 98.6634 15.1841C96.8055 17.0725 94.2509 18.961 90.9996 20.8494H101.583V24.9665H84.5633Z" fill="white" fill-opacity="0.96"/>
</svg>
